<?xml version="1.0" encoding="UTF-8"?>
<svg xmlns="http://www.w3.org/2000/svg" xmlns:xlink="http://www.w3.org/1999/xlink" version="1.1" viewBox="0 0 612 792">
  <defs>
    <style>
      .cls-1 {
        fill: #b5b5b5;
      }

      .cls-1, .cls-2, .cls-3, .cls-4, .cls-5, .cls-6, .cls-7, .cls-8, .cls-9, .cls-10, .cls-11, .cls-12, .cls-13, .cls-14, .cls-15 {
        stroke-width: 0px;
      }

      .cls-2 {
        fill: #dedede;
      }

      .cls-3 {
        fill: #545454;
      }

      .cls-4 {
        fill: #c9c9c9;
      }

      .cls-5 {
        fill: #8c8c8c;
      }

      .cls-6 {
        fill: #c7c7c7;
      }

      .cls-7 {
        fill: #9e9e9e;
      }

      .cls-8 {
        fill: #999;
      }

      .cls-9 {
        fill: #000;
      }

      .cls-10 {
        fill: #f0f0f0;
      }

      .cls-16 {
        fill: none;
        stroke: #dbd0f6;
        stroke-width: 12px;
      }

      .cls-16, .cls-17, .cls-18 {
        stroke-miterlimit: 10;
      }

      .cls-11 {
        fill: #7a7a7a;
      }

      .cls-17 {
        fill: #858585;
        stroke: #696969;
      }

      .cls-17, .cls-18 {
        stroke-width: 8px;
      }

      .cls-12 {
        fill: #707070;
      }

      .cls-13 {
        fill: #fdfdfe;
      }

      .cls-14 {
        fill: #828282;
      }

      .cls-18 {
        fill: #575757;
        stroke: #2b2b2b;
      }

      .cls-19 {
        display: none;
      }

      .cls-15 {
        fill: #adadad;
      }
    </style>
  </defs>
  <g id="Layer_1" data-name="Layer 1">
    <image width="1652" height="1636" transform="translate(-107 -13) scale(.5)" xlink:href="oscarblackandwhite-1.png"/>
  </g>
  <g id="Layer_3" data-name="Layer 3">
    <g id="OSCAR_HIMSELF" data-name="OSCAR HIMSELF">
      <g id="Oscar_Left_Ear" data-name="Oscar Left Ear">
        <path class="cls-9" d="M151.3,191.3c-7.6-5.9-11.8-13.6-13-23.1-.2-1.5,0-3,0-4.4.1-1.4.5-3.7,1.3-6.5,6.4-14.9,18.2-24.7,32.6-22.8,2.5.3,4.8,1.1,7.2,2,.1,0,.2,0,.3.1,3.3-4.5,6.8-8.9,10.4-13.2-.8-.3-1.7-.8-3-1.4-12.7-6.3-34.3-1-37.9.3-2.4,1.1-6.2,2.6-8.6,4.5s-6.2,5.1-8.4,8.1c-2.3,3-4.9,6.3-6.5,9.9s-2.9,6.8-3.7,10.5c-1.8,8.1-.3,19.9.6,24.1,1.3,4.1,2.1,5.9,3.2,7.9s2.9,4.9,4.4,7.4h0c.8,1.1,1.8,2.2,2,2.5.2.3.7.7,1,1,.3.3.6.6,1,1,.4.4,5.9,5.3,9.4,7.3,2.1,1.2,4.1,2.5,6.5,3.1,0,0,.2,0,.2,0,.3-6,1.1-11.8,2.4-17.5-.3-.2-.8-.4-1.2-.8Z"/>
        <path class="cls-15" d="M151.5,188.4c0,.3-.1.6-.2.9,0,.8-.1,1-.3,1.6-.6,3.4-.9,3.7-4,1.5-7.6-5.9-11.8-13.6-13-23.1,3.4,1.2,5.8,0,6.6-3.4,1.3-5.9,4-11,8.8-14.9,6.5-5.3,13.8-8.5,22.3-4.9-2.5,3.8-5.1,7.6-7.6,11.4-1.8-.2-3.8.2-5.5.5-6.1,1.2-12.7,8.8-12.1,15,.5,5.4,3.4,13.2,5,15.5Z"/>
        <path class="cls-10" d="M171.7,146c-8.5-3.6-15.9-.4-22.4,4.9-4.8,3.9-7.5,9-8.8,14.9-.8,3.5-3.2,4.7-6.6,3.4-.2-1.5,0-3.8,0-4.4s.1-1.2.4-1.9c0-.7.5-3.3.6-3.6s.1.5,1.4-3.3c4.4-12.6,21.3-22,32.6-22.5,4.1-.2,5.7.3,8,1.3,4.1,1.7,4.4.5-.8,5.2s-3,3.9-4.5,5.9Z"/>
        <path class="cls-12" d="M151.5,188.4c-1.8-2.3-4.6-10.2-5.1-15.5-.6-6.1,6-13.7,12.1-15,1.7-.3,3.8-.8,5.6-.6-2.3,4.8-4.6,9.5-6.9,14.4-2.1,4.7-3.8,9.5-4.8,14.6-.1.7-.1,1.6-1,2.1Z"/>
      </g>
      <g id="Oscar_Right_Ear" data-name="Oscar Right Ear">
        <path class="cls-9" d="M477.5,137c.4-.3,1-.5,1.3-.6,0,0,2.8-1.5,5.2-1.5,13.3-1.6,18.2,1.9,22.9,7.2,8.1,8.9,11.1,15.3,11.9,20,3.8,16.2-5.5,25.6-5.5,25.6-2,2.5-4,4.1-7.1,5.7-1,.4-2,.7-2.7.5,1.3,5.5,2.4,11.1,3.2,16.7.3-.1.5-.3.9-.4,13.2-4.8,21.5-14.3,26.3-27.2.9-2.4,1.3-5,1.9-7.5,0,0,.2-.4.3-1.1,0-.6.3-4.3.4-6.4,0-.4,0-.7,0-1.1,0-2-.1-4.4-.2-6,0-1.6-.4-3.4-.5-4.2-1-7.9-4-12.8-8.6-19.1-2.8-3.8-8-8.6-9.1-9.5-1.2-.9-2.1-1.6-3.9-2.8-1.8-1.1-2.5-1.6-3.4-2-.8-.4-2.7-1.2-3.5-1.6s-3.1-1.4-4.5-1.8-1.7-.5-3.5-1c-1.8-.5-3.5-.8-6-1-2.5-.2-6.4-.1-8.4,0-2,.2-5.3.7-7.7,1.4s-7.1,2.7-10.3,4.9c-.1,0-.2.1-.3.1,4,3.9,7.6,8,11,12.4Z"/>
        <path class="cls-12" d="M520.2,183.1c-.9,1.9-1.4,2.8-3,4.9-2.4,3.4-4.7,4.7-7.1,6.8-1.9,1.6-4.9.7-5.2-1.7-1.4-11.2-6.1-21.1-11.2-30.9-.5-.9-1.3-1.8-1.1-3,.9-.2,1.8-.6,2.7-.5,5.4.4,9.9,2.2,12.4,7.5,1.5,3.3,2.5,3.6,6.1,2.3.4-.1.8-.1,1.2-.1,0,1.4.8,2,2.2,2,1,0,1.9,0,2.9,0,1,.3,2.8,1.8,2.8,1.8.4,3.2-1.3,7.7-1.4,8-.2.7-.3,1.1-1.2,3.1Z"/>
        <path class="cls-10" d="M480.9,141.8c-.4-.6-.9-1.1-1.1-1.3s-.2-1-.2-1.5,1.6-1.1,2.2-1.4c1.7-.7,3.2-.9,4.3-1,.4,0,.8-.1,1.2-.2,3.5-.5,5.4-1,7.7-.2.5.1,1.2.3,1.2.3,0,0,1.5.4,2.3.7.4.1.3.1,1,.4,4.6,1.6,9.6,4.9,10.2,5.4s.7.5.9.8c2.3,1.9,2.5,2.4,4.3,4.3.3.3.6.6.8.9,4.3,4.9,3.8,5.4,4.8,8.2.5,1.3.7,1.9.9,3.8,0,.6.1.7.4,2.1.5,2.1.8,3.9.9,5.1.1,2.1,1.6,8.2-2.8,2-1,0-1.9,0-2.9,0-1.4,0-2.1-.6-2.2-2,0-.4.1-.8,0-1.2-1.5-6.9-4.8-12.8-10.5-17.1-5.1-3.8-10.8-5.8-17.3-4-.9.3-2,0-3,.1-.1,0,.1.1-.2-.4s-1.1-1.5-.8-1.1,0-.2-.5-.7"/>
        <path class="cls-15" d="M484.3,146.1c1,0,2,.1,3-.1,6.5-1.8,12.2.2,17.3,4,5.7,4.2,9,10.1,10.5,17.1,0,.4,0,.8,0,1.2-.4,0-.8,0-1.2.1-3.6,1.3-4.5,1-6.1-2.3-2.5-5.3-7.1-7.1-12.4-7.5-.9,0-1.8.3-2.7.5-.8-.3-1.4-.8-1.8-1.6-1.8-4-4.1-7.8-6.5-11.5Z"/>
      </g>
      <g id="Oscar_Body" data-name="Oscar Body">
        <path class="cls-15" d="M134.1,645.1c4.7,4.9,9.6,9.6,15.1,13.7,8,5.9,16.6,10.9,26.1,13.8,14.9,4.4,29.7,4.4,43.8-3.1,1.1-.6,2.3-1.1,3.1-2,2.3-2.5,5-2.4,8-1.5,14.6,4.5,29.7,6.4,44.8,8.4,18.4,2.5,37,3.1,55.5,3.1,19.6,0,39.1-1.4,58.4-4.1,12.7-1.8,25.3-3.8,37.8-6.6,1.4-.3,2.6-.2,3.8.7,12,8.1,25.4,9.5,39.3,7,19.5-3.4,35.3-13.5,48.4-28.1.4-.4.8-.8,1.2-1.2.2,1.1,1.1,1.2,1.9,1.3,8.6,1.6,17,4,25.3,6.4,4.2,1.2,8.4,2.6,12,5.2,2.8,2,3.2,4.6,1.2,6.4-2.1,1.8-4.3,3.4-6.9,4.3-13.7,5.1-27.9,8.1-42.2,11-7.4,1.5-14.8,2.8-22.2,4.1-9.9,1.7-19.7,3.3-29.7,4.5-9.7,1.2-19.5,1.7-29.1,3.2-5.8.9-11.7,1.1-17.6,1.6-9,.7-18,1.2-27.1,1.7-8.2.4-16.5.3-24.6.9-17.1,1.3-34.2.9-51.4.8-10.7,0-21.4-.6-32.1-1-9.8-.4-19.5-1.2-29.3-2-8.5-.6-17-1.2-25.5-2.2-5.1-.6-10.2-1-15.4-1.3-4.5-.2-9-1-13.6-1.6-5.3-.7-10.6-1.5-15.9-2.3-5.1-.8-10.1-1.8-15.2-2.7-5.9-1-11.8-1.8-17.6-2.8-2.8-.5-5.5-1.5-8.4-2.1-7.9-1.5-15.7-3.1-23.4-5.3-5.4-1.6-10.6-3.7-15.8-5.9-1.8-.7-3.2-2.7-4.4-4.3-.8-1.1-.5-2.5.6-3.6,2.5-2.5,5.6-3.9,8.8-5,4.7-1.7,9.3-3.5,14.2-4.5,4.9-1,9.5-3.2,14.6-3.4,1.1,0,2.6,0,3-1.6Z"/>
        <path class="cls-15" d="M473.1,344.9c-.1-.5-4-18.9-5.5-28.6-2.9.4-4.8,1.8-6.7,3.5-7.1,5.9-14.3,11.5-22.2,16.2-6.7,3.9-13.4,7.8-20.6,10.9-3,1.3-3.5,1-3.4-2.2,0-1.9.9-3.7.3-5.7-1.4,1.8-.9,4-1.2,6.1-.2,1.3,0,2.6,0,4-1.6,5-1.3,10.3-1.9,15.5-1.1,10.3-1.1,20.7-2.5,31-.4,2.8.6,5.8-1,8.5,0,2.6,1.7,4.6,2.8,6.7,2.6,4.8,4.9,9.7,6.7,14.8,1.5,4.6,2.7,9.2,3.8,13.9,1.8,8,4,15.9,2.8,24.2-.4,2.6-.5,5.3,0,7.9.8-.9.6-2.1.7-3.1.2-3.9.7-6.9.7-10.8,0-5.7,3.2-10.4,8.6-10.4,5.7,0,9.5,3.7,9.6,9.5,0,7.8-.6,15.5-1.9,23.1-2.6,15.5-7.8,30-15.4,43.7-2.3,4.1-5.4,7.7-7,12.2,1.9,1.9,7,1.9,9,1.4,7.2-1.7,13.6-5.5,19.8-9.6,7.9-5.2,13.8-12.4,19.2-19.9,2.7-3.7,4.6-7.8,6.5-12,1.6-3.6,3.3-7.2,4.6-11,1.8-5.5,3-11.2,4.1-16.9,1.2-5.7.9-11.5,1.7-17.3.4-3,.1-6.1.8-9-1.1-3-.6-6.2-.9-9.3-1.1-10-2.3-19.9-4-29.8-.8-4.9-1.2-9.9-2.2-14.7-1.9-9.2-2.7-18.5-4.3-27.7-.3-1.7-.5-3.4-.9-5.1-.4-1.6.9-2.3.9-5.4s-.7-4.2-.8-4.7Z"/>
        <path class="cls-15" d="M232.5,433.7c0,.5-.2.7-.4,1.4s-.5,1.8-.6,2.4c-.2,1.2-.4,1.9-.4,1.9,0,0-.4,1.6-.7,2.1s-1.3,7.1-1.6,10.6c0,.7-.2,1.5-1,1.9-.8-.5-.9-1.3-1.3-2-2.1-3.6-6.3-5.4-10.2-4.5-3.8.9-6.6,4-6.8,8.2-.4,10,.3,20,2.3,29.8,2.2,10.5,5.5,20.7,10.4,30.3,3.1,6.1,6.6,11.9,10.4,17.6,1,1.5,1.8,2.9.4,4.6-2.9-.3-5.7-1-8.4-1.9-9-3.1-16.8-8.3-23.8-14.6-7.7-7-13.8-15.4-18.4-24.8-4.4-9-7.2-18.5-8.9-28.4-1.5-8.8-1.3-17.7-2-26.5.5-.7.6-1.6.4-2.4-1.1-5.6.6-11.1,1-16.6.6-7.8,2.3-15.4,3.4-23.1,1.5-10.8,3.4-21.4,4.9-32.2,1.2-8.4,2.1-16.8,1.9-25.3,0-.8.1-1.7-1-2,0-.3,0,0,0-1s.5-2,.6-2.5,0-.9.3-1.9.7-3.1.8-3.5,0-.4.2-1.5.8-3.7.8-4,0-.7.1-1.5.8-4.2.8-4.5,0-.6.1-1c1.7-1.6.3-4.2,1.8-5.9,2,2.4,3.9,4.8,6,7.1,5.7,6.2,12.4,11.2,19.8,15.3,6.4,3.5,12.3,7.8,18.9,10.9,2.4,1.1,4.6,2.6,7.3,3.1.2.2.3.3.5.5.5,6.1,1.2,12.2,1.5,18.3.2,5,.8,9.9,1.2,14.9.7,8.3,1.6,16.5,1.8,24.8-2.7,4.7-8.6,16.5-7.6,14.4s-2.2,3.9-2.7,6.1c0,.3,0,.4-.1,1s-.4.4-.5,1c-.2.8-.2.9-.5,2s-.3.7-.5,1.7Z"/>
        <path class="cls-12" d="M237.6,619.5c3.1-.5,5.9.9,8.7,1.6,11,2.9,22.2,4.8,33.5,6.3,14.3,1.9,28.7,3,43.1,3.6,10,.4,19.9-.7,29.8-1.1,8.2-.3,16.3-1.7,24.5-2.7,6.1-.7,12.1-2.2,18.1-3.5,7.2-1.5,14.7-3.2,21.9-4.8-1.9,3.9-4,7.7-4.6,12.2-.7,5.3-.2,10.3,1.7,15.2,1.1,2.8.9,3-1.8,3.8-12.6,3.6-23.6,5.8-38.8,7.4-18.8,2.8-32.6,3-49,2.7-14.3-.2-28.6-1-42.8-2.8-11.9-1.5-23.7-3.2-35.2-6.6-2.2-.6-4.3-1.4-6.4-2-1.1-.3-1.6-.8-1-1.9,4.1-8.6,2.7-17-.7-25.3-.3-.7-.5-1.4-.8-2.1Z"/>
        <path class="cls-12" d="M429.4,636.7c4.4,7.2,11.6,8.7,19.2,9.7,6.2.7,12.1-.3,17.9-1.8,7.9-2.1,15.2-5.4,21.9-10.2,10.3-7.5,18.5-16.7,24.9-27.7,1.2-2,2.4-3.9,3.5-6,2.4-4.6,3.9-9.6,5.5-14.5,1.5-4.4,2.3-8.8,3.2-13.2.1-.7,0-1.8,1-1.7.8,0,.5,1.1.5,1.7-.1,4.6.3,9.3-.2,13.9-.1.9.4,1.7,1.5,1.9-.5,4.5-1.4,10.1-2.9,14.3-5.3,14.6-12.9,27.7-24.3,38.4-9.9,9.3-21.5,15.1-34.9,17.5-6.9,1.2-13.5,1.3-20.1-1.1-8.3-2.9-16.2-12.7-16.6-21.1Z"/>
        <path class="cls-12" d="M127.7,594.2c1.2-.6.7-1.6.6-2.4-.4-3.8-.9-7.6-.9-11.4,0-.6-.3-1.3.6-1.8.8,2.6,1.6,5.2,2.4,7.7,2.5,8.2,6.5,15.8,10.6,23.2,5.1,9.2,12.1,16.7,20.6,22.9,7.9,5.8,16.5,9.9,25.8,12.5,9.4,2.7,18.8,2.8,28-1.1,3-1.3,6.3-4.3,8.8-6.4-1,5.7-5.7,14.6-13,17.9-9.2,4.2-19,3.4-28.4.6-23.3-7-39.2-22.2-49.1-44.2-2.4-5.3-4.3-10.6-5.9-16.1-.1-.5,0-1-.1-1.4Z"/>
        <path class="cls-12" d="M419.7,535.9c1.9,1.9,4.4,1.3,6.3.8,7.2-1.7,13.6-5.5,19.8-9.6,7.9-5.2,13.8-12.4,19.2-19.9,2.7-3.7,4.6-7.8,6.5-12,1.6-3.6,3.3-7.2,4.6-11,1.8-5.5,3-11.2,4.1-16.9,1.2-5.7.9-11.5,1.7-17.3.4-3,.1-6.1.8-9,2.7-.6,5.7-1.2,8.4-1.9.8,1.8.7,3.8.6,5.6-.3,8.6-.6,17.1-1.8,25.6-2.3,15.9-8.5,30.1-18.2,42.9-9,11.8-20.7,19.8-34.5,24.9-4.1,1.5-8.3,2.3-12.7,2.2-2.7,0-4.9-2-4.9-4.6Z"/>
        <path class="cls-12" d="M171.4,441.6c.7,8.8.5,17.7,2,26.5,1.7,9.9,4.5,19.4,8.9,28.4,4.6,9.4,10.7,17.8,18.4,24.8,7,6.3,14.7,11.5,23.8,14.6,2.8.9,5.5,1.6,8.4,1.9-1.6,2.7-3.4,3.6-6.8,3-8.3-1.3-15.9-4.6-22.9-9-12.5-7.8-22.5-18-29.5-31.1-4.3-8-6.9-16.5-8.7-25.4-2.4-11.8-3-23.7-2.3-35.7.1-1.8-.9-3.6.4-5.3-.3,4.3,2.5,5.7,6,6.5.8.2,1.7.4,2.5.6Z"/>
        <path class="cls-13" d="M171.4,441.6c-.8-.2-1.7-.4-2.5-.6-3.4-.9-6.3-2.3-6-6.5,0-1.9.1-4.5.3-5.8s.3-1.8.3-2.3.2-1.3.2-1.9,0-.5,0-1,.1-3,.2-3.8.3-1.2.4-1.8.5-4,.6-4.7.2-1,.4-1.8.6-3.5.6-4.2.3-1.3.4-1.8.4-2.6.6-3.2.2-.8.4-1.3,2-9,2.2-9.7.2-.5.4-1.3.4-2.2.6-2.7q.3-.9.5-1.6c.2-.7,7.1-28.8,7.2-29.3s.3-.9.4-1.3.5-2.6.7-3.2.3-1,.3-1.3.4-1.9.6-2.4.5-1.4.5-1.7.2-1.1.2-1.6,0-1,.2-1.3,0-.6.2-1.2c.1-.2.2-1.1.3-1.3s.1-.6.2-.9c1.1.3,1,1.2,1.1,2,.2,8.5-.7,16.9-1.9,25.3-1.5,10.8-3.3,21.4-4.9,32.2-1.1,7.7-2.7,15.4-3.4,23.1-.4,5.5-2.1,10.9-1,16.6.2.8.1,1.7-.4,2.4Z"/>
        <path class="cls-13" d="M473.9,349.5c.2.7.4,2,.5,2.5s.4,1.1.4,1.5,5.6,22.3,8.3,33.5c.6,2.4,1.4,6.6,1.6,7.3s.3.8.4,1.3.5,3.2.7,3.7.2.9.3,1.3,1.1,6.3,1.3,6.8.2.7.3,1.2.6,3.2.7,3.7.2.9.3,1.3.7,4.6.8,5.1.3.9.3,1.3.5,4,.6,4.7.3,1.1.4,1.8.6,6.5.9,9.8c0,1,.2,2-.4,2.8-2.7.6-5.7,1.2-8.4,1.9-1.1-3-.6-6.2-.9-9.3-1.1-10-2.3-19.9-4-29.8-.8-4.9-1.2-9.9-2.2-14.7-1.9-9.2-2.7-18.5-4.3-27.7-.3-1.7-.5-3.4-.9-5.1-.4-1.6,2.4-4.1,3.5-4.9"/>
        <path class="cls-12" d="M570.7,535.8c.9,5.9-.5,11.8-2.6,17.1-4,9.9-9.7,18.7-16.5,26.8-.6.7-1,2-2.1,1.5-.9-.4-1.4-.2-.8-2.8,1.3-8.8.8-17.7,1.1-26.6,1.8,1.7.1,4.1,1.1,6.1,1.2-1.4,2.3-3,3.6-4.1,5-4.2,9.4-8.8,12.9-14.4.8-1.3,1.4-3.1,3.3-3.6Z"/>
        <path class="cls-10" d="M497.5,506.6c-.7.9,1.7,1.2,2.6,1.6,6.9,3.6,12.2,9.1,16.7,15.3,6.7,9.4,8.9,20.2,9.4,31.4.2,5.4,0,16.5,5.2,16.3,0-3.5,2.8-13.4.5-22.1,0-.6,0-.4-.1-1.8s-.9-5.1-1-5.7,0,0-.1-1.3-.5-2.4-.8-3.3-.1-.8-.2-1.2c-.7-3.1-1-4.3-1.8-6.4-1.5-3.6-2.3-5.5-5-8.5,0,0-1.6-1.9-1.8-2.1s-.8-.8-1-1.1-2.1-2.1-2.5-2.5-.6-.6-1.1-1-.9-.7-1.6-1.3-2.4-1.7-2.7-1.9-3-1.6-3.5-1.9-7-3.6-8.3-3.5c-1.6,0-3,.9-3,.9"/>
        <path class="cls-10" d="M153,506.8c-.2.4,1,.6.1,1.1-6.7,4.1-11.9,9.8-16.4,16.1-4.2,5.7-6.8,12.1-8.2,19.1-.9,4.9-2.4,9.7-2,14.7,0,.9,0,1.7-1.1,2-1.5.4-3,.3-4.1-1-.2-2.3,0-5.7,0-6.8s.4-3.8.4-3.8c0,0,.1-.5.1-.8s.1-1.2.2-1.5,0-1.2.2-1.9.6-1.9.6-2.2,0-.5,0-.8,0-.6.1-1,0-.4.1-.9.5-1.4.6-1.8.2-1.2.4-1.7.5-.9.6-1.3.1-.6.3-1.2.4-.5.7-1.3,4.7-16.7,23.2-23.6c1.3-.5,2.6-1.2,4-1.2Z"/>
        <path class="cls-12" d="M238.4,558.5c-2.5,1.1-2.3,2.5-.8,4.4.5.6,1.2,1.4,1.1,2.4-5.8,1-11.6.3-17.3-.8-6.9-1.3-13.3-4.1-19.2-7.9-5.5-3.5-10.6-7.6-15.3-12.2-.6-.6-1.5-1.1-1.5-2.2,3.1,1.9,6.2,3.7,9.3,5.6,7.5,4.4,15.5,7.5,23.9,9.6,4.5,1.1,9.1,1.7,13.7,1.9,2.1,0,4-1.2,6.1-.9Z"/>
        <path class="cls-12" d="M415.3,564.4c.1-.3.3-.7.4-1,1.9-.9,2.6-2.4,2-4.5,4.9.5,10.5,0,15.7-1,11.2-2.2,21.5-6.7,30.8-13.2.2-.2.6-.2.9-.2-1.8,3.5-5.1,5.7-8,8-7.2,5.7-15.3,9.9-24.4,11.6-5.8,1.1-11.7,1.3-17.5.3Z"/>
        <path class="cls-15" d="M570.7,535.8c-1.6.6-2.5,2.3-3.3,3.6-3.5,5.6-7.9,10.2-12.9,14.4-1.4,1.1-2.4,2.7-3.6,4.1-1-2,.7-4.4-1.1-6.1-.1-2.4-.2-6.2-.4-7.2s-.4-1.5-.5-2.3-.4-1.5-.1-2.4,1.6-1.3,2.5-1.1,1.9,0,2.7-.2,2.5-.7,3.3-.8.5,0,.8-.1c1-.3.9-.4,1.8-.6s2.4-.5,2.9-.7,1.1-.3,1.1-.3c0,0,2.6-.6,2.9-.7s.9-.2,1-.2,2.6-.8,3.1.6Z"/>
        <path class="cls-15" d="M418,558.8c.6,2.1-.4,3.6-2.3,4.5.9-3.5.9-3.5-2.8-5-6.6-2.5-10.9-7.2-12.9-13.9-.3-1,.4-3.1.5-3.1.1.2,1,6.7,4.1,9.7,4.1,4.2,7.7,5.8,13.5,7.8Z"/>
        <path class="cls-15" d="M236.2,558.6c-.6,2.1,0,4.1,2,5.1-.9-3.5-.4-3.7,3.3-5.1,6.6-2.5,10.9-7.2,12.9-13.9.3-1-.8-3-.8-3-.1.2-1.4,6.2-4.6,9.1-4.1,4.2-7,5.9-12.8,7.8Z"/>
        <path class="cls-15" d="M433.5,621.5c1.1-1.7,3.1-5.7,1.6-7.9-1.7-2.4-5.4-3.7-9-2.5-4,1.5-6.6,4.3-9,7.7-7.2,1.6-14.7,3.3-21.9,4.8-6,1.3-12,2.8-18.1,3.5-8.1,1-16.2,2.4-24.5,2.7-9.9.4-19.8,1.5-29.8,1.1-14.4-.5-28.8-1.7-43.1-3.6-11.3-1.5-22.4-3.4-33.5-6.3-2.8-.7-5.6-2.1-8.7-1.6-2.5-2.7-4.4-6.1-8-7.6-2-.9-3.6-1.5-5.9-1.2-4.8.6-7.1,5.4-4.4,9.4s4.8,9.8,4.9,10.2.2.7.3,1.5.3,2.1.2,3.2c0,.3-.2,2.1-.8,3.1-.3.4-5.5,4.4-8.5,5.6-9.2,3.9-18.6,3.7-28,1.1-9.3-2.6-17.9-6.7-25.8-12.5-8.5-6.2-15.5-13.8-20.6-22.9-4.1-7.4-8.1-15-10.6-23.2-.8-2.6-1.6-5.1-2.4-7.7-.9.5-.6,1.2-.6,1.8,0,3.8.5,7.6.9,11.4,0,.8.6,1.8-.6,2.4,0-.3-.1-.6-.2-.9s-.5-1-.6-1.3-4.3-17.5-5-26.7c-.2-2.2-.5-4.4-.7-6.6,1.1,1.3,2.6,1.3,4.1,1,1-.2,1.2-1.1,1.1-2-.4-5.1,1.1-9.9,2-14.7,1.3-7,4-13.4,8.2-19.1,4.6-6.3,9.8-11.9,16.4-16.1.9-.5-.3-.7-.1-1.1,3.5-1.6,4-1.4,5.5,1.7,6,12.6,25.3,32.5,25.1,32.2s.7.6,1.1.9.5.4.8.7c0,1.1.9,1.6,1.5,2.2,4.7,4.6,9.8,8.6,15.3,12.2,5.9,3.8,12.3,6.5,19.2,7.9,5.7,1.1,11.5,1.7,17.3.8,3.6,4.4,6.6,9.3,10.6,13.4,7.8,8.1,16.5,15,26.5,20,12.1,6,24.8,10,38.4,11.2,11.5,1,22.9,1,34.2-1.4,16.4-3.5,31.7-9.6,45-20.3,7.3-5.9,14.1-12.3,19.2-20.4.8-1.2,2-2.8,3.4-3.6,5.9,1,11,.8,16.8-.3,9.1-1.7,17.2-5.9,24.4-11.6,2.9-2.3,6.2-4.5,8-8,0,0,3.5-2.6,4.8-3.7s4.7-4,6.1-5.5,6.1-6.4,7.2-7.8,3.7-4.7,4.3-5.6l3-4.5c1.8-3.8,4.3-7.2,5.7-11.2.6-1.6,2-.8,3-.2-.5.2-1.8.6-1.8.7s1.7,1.2,2.6,1.6c6.9,3.6,12.2,9.1,16.7,15.3,6.7,9.4,8.9,20.2,9.4,31.4.2,5.4.4,5.4,5.7,5.3,0,0,.2,0,.2.2,0,0,.3,1.2.3,1.4s-.2,1.4-.3,2.5,0,1.3-.1,2,0,.9-.1,2,0,1.4-.5,3-.3,1.6-.3,1.9c0,.8,0,1,0,1.6s0,.3,0,1-.3,1.4-.4,2.4-.4,2.4-.4,3.2-.4,1.7-.6,2.5,0,.3-.2,1.4-.3,1.8-.6,2.6-.2.7-.3,1c-1.1-.2-1.7-1.1-1.6-2,.6-4.6.1-9.3.2-13.9,0-.6.3-1.6-.5-1.7-1-.1-.9,1-1,1.7-.9,4.5-1.7,8.9-3.2,13.2-1.7,4.9-3.1,9.9-5.5,14.5-1.1,2.1-2.4,4-3.5,6-6.4,11-14.6,20.3-24.9,27.7-6.7,4.8-14,8.1-21.9,10.2-5.8,1.6-11.7,2.6-17.9,1.8-7.7-.9-14.8-2.5-19.2-9.7-.4-2-.4-3.8,0-5.9.7-4.3,3.1-7.6,4.1-9.3Z"/>
        <path class="cls-10" d="M239.8,349.5c3.7,1.2,7.5,2.3,11.2,3.7,6.5,2.6,13.3,3.9,19.9,5.8,7.2,2,14.6,2.5,21.8,4.3,2.1.5,4.4.4,6.5,1.2-.9,2.3-3.4,1.9-4.9,2.2-4.6.8-8.6,3.1-12.6,5.2-7.5,3.9-14.4,8.7-20.5,14.8-5.7,5.6-11.8,10.8-15.3,18.3-.4.9-.2,2.3-1.6,2.6-.3-8.3-1.2-16.5-1.8-24.8-.4-5-1-9.9-1.2-14.9-.3-6.1-1-12.2-1.5-18.3Z"/>
        <path class="cls-10" d="M352.9,364c5-1,6.4-.3,9.1-.8,5.8-1,11.6-2.2,17.4-3.5,5.9-1.3,11.6-3.3,17.3-4.9,5.4-1.5,10.5-3.7,15.8-5.6.4-.1.8-.1,1.2-.2-1.6,5-1.3,10.3-1.9,15.5-1.1,10.3-1.1,20.7-2.5,31-.4,2.8.6,5.8-1,8.5-2.1-.5-2.6-2.6-3.6-4.1-2.5-4-5.6-7.3-8.8-10.6-3.4-3.5-7.3-6.5-11-9.6-2.3-2-5-3.4-7.7-5-4.5-2.7-9.3-4.9-14.1-7-2.7-1.2-5-1.3-7.7-2.6-.4-.2-2.3-.8-2.6-1Z"/>
        <path class="cls-13" d="M425.8,463.6c-.1-9.5-1.7-16.2-3.4-24.2-1-4.7-2.2-9.3-3.8-13.9-1.7-5.2-4.1-10-6.7-14.8-1.2-2.2-2.8-4.1-2.8-6.7-2.1-.5-2.6-2.6-3.6-4.1-2.5-4-5.6-7.3-8.8-10.6-3.4-3.5-7.3-6.5-11-9.6-2.3-2-5-3.4-7.7-5-4.5-2.7-9.3-4.9-14.1-7-2.7-1.2-5.1-2-7.7-3.3-.4-.2-1.5-.3-1.8-.5-1.2-.2-2.3-.5-2.7-.6s-.5-.3-3.5-.8-17.5-1.3-27-1.1c-4.1,0-8,1-12.1,1.5-1.4.2-3.8.5-4.2.5s-.8.4-1,.5c-.2,0-2.6.6-4,.5-.9,2.3-3.4,1.9-4.9,2.2-4.6.8-8.6,3.1-12.6,5.2-7.5,3.9-14.4,8.7-20.5,14.8-5.7,5.6-11.8,10.8-15.3,18.3-.4.9-.2,2.3-1.6,2.6-2.7,4.7-7.2,13.8-7.6,14.4s-2.6,5.4-2.7,6.1,0,.6-.1,1-.4.8-.5,1-.5,2-.5,2c0,0-.3,1.2-.4,1.7s-.3,1.1-.6,2c-.3.9-.4,1.3-.5,2.1s-.2,1.1-.3,1.5-.6,1.6-.7,2.1-1.3,7.1-1.7,10.6c0,.7-.2,1.5-1,1.9.1,4.5.4,13.2.4,13.5s0,.5,0,1,.3,4.7.3,5.4.3,1.7.2,1.1.6,4.6.8,4.9.2.4.4,1.4c.1.9,4.7,17.8,8.3,26.3,3.4,7.8,8.1,14.9,11.9,22.4,2.1,4.1,3.7,8.3,2.9,13.1-1,6.1-9.1,13.4-9.4,13.5s-1.1.4-1.5.7-.3.1-.7.4-.6.2-1.3.5-1.2.3-1.8.5c-2.5,1.1-2.8,2.4-1.5,4.4s1.2,1.5,1.1,2.5c3.6,4.4,7.3,9.2,11.3,13.3,7.8,8.1,16.5,15,26.5,20,12.1,6,24.8,10,38.4,11.2,11.5,1,22.9,1,34.2-1.4,16.4-3.5,31.6-9.6,44.8-20.2h.5v-.4c7.2-5.8,13.9-12.2,18.9-20.1.8-1.2,1.3-2.7,2.7-3.5.1-.3.3-.7.4-1,.9-3.5.9-3.5-2.8-5-6.6-2.5-12.7-6.9-12.9-13.9s-.2-2.1-.2-3.1c0-.9.4-2.5.4-2.6s.7-5.3,1.8-7.7c3.4-7.6,8.1-14.2,11.6-21.8,3.1-6.7,4.9-10.4,7.1-17.4.4-1.2.4-1.6.9-3.4,0-.3.8-3.3,1-4.6.2-1.3.7-2.9.8-4,.1-1.1,0,.4,0-.8.1-1.2.7-3.3.9-6.2,0-.7,0-.4,0-.7.3-1.8.8-6,.7-8.6Z"/>
        <path id="Oscar_Body_Outline" data-name="Oscar Body Outline" class="cls-9" d="M145.4,213.7c-.5,7.2-1.9,20.4-.1,30.7.1.7.2,1.2.4,2.3,0,.4,0,.5.1.9,0,.5,1.1,5.4,1.7,8s.6,3.4,2.8,8.7c1.2,4.5,10.6,25,18.8,36,1.9,2.5.4,6.5.3,7.7-.1,1.3-.2,1-.2,1.5s-.7,3.5-.7,3.5c0,.6,0,1.3-.1,1.9-.9,6-1.5,8.5-2.2,12.7-.8,4.9-3,14.3-3.1,14.5,0,.2-.4,1.3-.4,1.7s-.1.6-.1.8c-.5,4.6-2,8.9-2.9,13.4-1.1,5.3-2.7,10.3-4,15.6-.1.5-.3,1-.5,1.6-.1.6-.2.6-.2.8,0,.2-1.2,5.8-1.7,8.7-1.3,6.3-2.6,12.7-4,19-.1.5-.4,1.1-.4,1.6,0,.4-.2.7-.2,1s-.8,4-.9,5c0,.4,0,.5,0,.8,0,.3-.7,4.2-.8,5-.1.8-.2.8-.2,1.4,0,.6-.7,4.5-.8,6.5s0,1.4-.1,2.4c0,1.1-.3,6.1-.4,9.2-.3,8.8-.5,17.6.3,26.4,0,1.7,0,4,0,5,0,.9,0,1,.1,1.5,0,.4.7,3.8.8,4.6.1.7.1,1,.2,1.5,0,.4,2.2,8.1,3.1,12.2.2,1.1-.5,1.7-1.4,2-4.8,1.5-13.8,5.8-13.9,5.9-.1,0-.4.2-.5.3-.1,0-3.8,2.4-4,2.6-.3.2-3.6,2.9-3.6,2.9-.5.4-3.3,2.6-4.8,4.7s-2.4,3.2-4.4,6-5.3,8.3-7.1,12.5c-2,4.6-3.7,9.3-4.4,14.2-.2,1-.2,1.5-.5,3.1,0,.8-.1,1.6-.2,2.4-.2,2.4-.4,4.4-.6,6.6-.3,5.5-.2,11,.1,16.5,0,1.2,0,1.7.1,3,0,1.3.1,2.3.2,3,0,.7.5,4.5.8,6.5s2.5,11.6,2.5,11.6c4.1,15,18,41.9,18.2,42.4.2.5.3.8.6,1.3.3.6,2.9,4,2.9,4,1.6,1.9,3.2,3.9,4.8,5.8,4.7,4.9,9.6,9.6,15.1,13.7,8,5.9,16.6,10.9,26.1,13.8,14.9,4.4,29.7,4.4,43.8-3.1,1.1-.6,2.3-1.1,3.1-2,2.3-2.5,5-2.4,8-1.5,14.6,4.5,29.7,6.4,44.8,8.4,18.4,2.5,37,3.1,55.5,3.1,19.6,0,39.1-1.4,58.4-4.1,12.7-1.8,25.3-3.8,37.8-6.6,1.4-.3,2.6-.2,3.8.7,12,8.1,25.4,9.5,39.3,7,19.5-3.4,35.3-13.5,48.4-28.1.4-.4.8-.8,1.2-1.2,7.5-9.3,13.9-19.2,18.2-30.4.7-1.8,1.8-3.1,3.3-4.2,4.5-3.5,9.1-6.9,13.3-10.7,11.1-10.2,20.4-21.8,27.2-35.3,2.4-4.7,5.1-11.8,5.9-14.7.7-2.9,1.6-10.4,1.8-11.5.1-1.2.2-1.8.1-2.4s-.3-2.6-.5-4c-.8-8-7.2-13.8-15.3-13.9-5.9,0-11.5,1.4-17.3,2.5-3.5.7-7,1.5-10.5,2.3-1.6.4-2.5,0-3.3-1.6-6.5-13.7-17-23.4-30.8-29.5-2.1-.9-4.3-1.4-6.4-1.9-1.3-.3-1.7-1-1.3-2.3,6.8-24.3,6.6-48.9,2.7-73.5-2.7-16.7-6.8-33.2-10.8-49.7-3-12.4-5.6-24.8-8-37.3-1.3-7-2.3-14.1-3.6-21.1-.5-2.8,0-5,1.9-7.3,8.7-11,14.3-23.7,18.4-37,4.7-15.4,4.9-37,4-47.1l-3.6-21.1c-1.6-9.5-10.4-29.1-11.2-30.9-.9-1.8-2.2-4.3-3.3-6.4-1.1-2.1-6.9-11.1-10.9-16.1s-6.1-9.3-11.4-14.3-12.5-11.9-19.1-17.5l-3.4-2.7s-5.3-4.1-6.5-5.1c-1.2-.9-5.6-3.9-6.8-4.7-1.2-.7-3.2-1.9-3.2-1.9-2.7-1.3-6.6-3.8-7.8-4.5-.4-.3-1.1-.6-2.6-1.3-1-.5-1.5-.7-2.1-1.1-.6-.3-2.7-1.3-3.9-1.9-1.2-.6-4.8-2.3-4.8-2.3-2.3-1.2-6-2.6-8.7-3.6-2.7-1-13.1-4.4-14-4.8-1-.3-1.6-.4-2.9-.8-1.3-.4-2.5-.7-4-1-1.4-.4-1.9-.5-4-1-2.1-.5-7.9-1.6-14-2.8-1.2-.2-6.5-1-6.5-1-.8-.2-2.8-.5-4.4-.7-1.7-.2-2.4-.2-3.5-.3s-4.6-.5-6.5-.7c-1.9-.2-6.4-.2-7.5-.3-1.1,0-10.1,0-11.6,0s-8,.1-9.5.3c-1.5.2-4.1.5-5.1.6-.9.1-3.1.4-4,.5-.9.1-2.6.4-3.9.5s-4.2.8-5.5,1c-1.3.2-7.5,1.7-7.5,1.7-2.2.5-9,2.1-9,2.1-2.4.6-4.2,1.1-5.6,1.5-1.4.4-2.4.7-3.3,1-.8.2-9,2.8-10,3.1-1.1.3-2.8.8-5.5,1.9-2.7,1.1-5.3,2.4-9.6,4.3-4.2,1.9-10,5.1-10,5.1-4.2,2.3-4.9,2.6-9.8,5.8s-11.4,7.8-14.1,9.7-3.9,3.1-5.8,4.8c-2,1.6-5.1,4-7.5,6.5s-13.7,13.9-25.5,30.9c-3.5,4.9-5.7,7.8-7.6,11.4-.8,1.5-4.6,9.5-6.9,14.4-2.1,4.7-3.4,9.1-4.8,14.6s-4.2,19.4-4.8,26.6ZM170.8,179.5c1.1-3.2,4.6-9.9,7.3-14.7,0,0,2.1-3.9,3.2-5.4,1.1-1.5,5.2-7.2,5.9-8.1.7-1,2.7-3.5,3.9-4.8,1.2-1.4,7.7-9.2,7.7-9.2,4.2-4.3,6.4-6.5,9.6-9.8,1.9-1.7,4.8-3.8,6.2-4.8,1.4-1,8.3-6.5,8.7-6.8.4-.3,2-1.2,2.8-1.7.8-.4,6.1-3.8,11.6-7.3.3-.1.5-.2.8-.3,4.6-2.4,5.9-3.5,9-5,5-2.1,9.2-4.2,14.3-6,.3,0,.6-.2.9-.3.3,0,.8-.3,1-.5.2-.1,1-.3,1.2-.4.2,0,1.1-.5,1.3-.6.2,0,1.1-.3,1.7-.4,2.4-1.5,5.1-2.1,7.8-2.5.3,0,.5,0,.9-.2.4,0,2.6-.7,3-.9.4-.1.7-.1.9-.2.2,0,2.2-.7,2.6-.8.4-.1.1,0,1-.2.8-.1,2.3-.6,2.6-.7.3-.1,1.3-.2,1.4-.3s2.8-.7,3-.7c.2,0,1.1-.2,1.2-.2.2,0,3.3-.7,3.8-.8.5-.1.6,0,.8-.1.1,0,4.7-.8,5.2-.9s.6,0,.7-.1c.2,0,7.6-1.1,11.4-1.5,1.9-.2,3.9-.4,5.9,0,4.6-.3,9.3-.2,13.9,0,6.7,0,14.9,1.2,17.3,1.6s2.8.6,5.5,1c.4,0,0,0,1.2.1,1.4.6,2.5.7,4.2.9.2,0,.5,0,.7.1,1.3.7,2.3,1.2,3,1,.5,0,1,.3,1.5.4,1,.2,1.3.4,2.4.6.3,0,.7.2,1,.3,1.1.4,1.4.4,2.4.7.3,0,.9.2,1.2.2,1.2-.3,1.8.3,2.9.5.3,0,.8.5,1.1.5,1.8.7,2.4.9,4.7,1.7.4,0,.6.3,1.1.4,1.2.4,1,.4,1.9.8.4,0,.8.2,1.2.2.8.3,1,.5,1.7.6.4.1.7.2,1.1.4q.5.2.9.4c.3,0,.7.2,1,.3.7.4,1,.2,1.7.6.3,0,.6.2.9.3q.6.2,1.6.7c.3,0,.8.2,1.1.3,1.3.1,1.5.5,2.8,1.1.4.1,1.1.7,1.5.8q.6.3,1.2.7c.3,0,.5.1.8.2q.5.3,1.2.6c.2,0,.8.5,1.1.6,2.2,1.2,2.7,1.2,5,2.3.2.1.3.2.6.4,1.4.8,2.6,1.4,4.2,2.4.1,0,.6.3.6.3q.5.3,1,.6c.8.4,1.4,1.1,2.2,1.5,2.1.9,3.1,1.8,5.6,3.5,1.8,1.2,3.8,2.6,5.6,3.8q1.1,1,2.7,2.1c1.7,1.1,3.3,2.3,4.7,3.7q.6.4,1.1.7l.3.2q.4.2.9.6c.5.4.7.8,1.2,1.2.5.4.7.5,1.2,1,15.8,14,29.5,29.4,38.1,48.9,3.2,7.3,6.3,15.3,7.7,22.6,1.4,7.3,1.9,10.7,3,20.8,1.1,10.1-2.1,33.7-5.7,42.9-3.5,9.2-12.8,25.6-15.7,29.7-2.9,4.1-3.6,3.2-5.2,8.9.5,5.4,1.6,10.2,2.1,15.1s6,31,7.4,38.5,5.6,22.3,8.3,33.5c.6,2.4,1.1,4.9,1.6,7.3,0,0,.3.7.4,1.3,0,.6.5,2.9.7,3.7.1.8.2,1,.3,1.3,0,.3,1.2,6.2,1.3,6.8.1.6.2.8.3,1.2,0,.3.5,3,.7,3.7.1.7.2.9.3,1.3,0,.5.7,4.7.8,5.1s.2,1,.3,1.3c0,.4.6,4.1.6,4.7,0,.6.3,1,.4,1.8,0,.9.6,6.5.9,9.8,0,1,.2,2-.4,2.8.8,1.8.7,3.8.6,5.6-.3,8.6-.6,17.1-1.8,25.6-2.3,15.9-8.5,30.1-18.2,42.9-9,11.8-20.7,19.8-34.5,24.9-4.1,1.5-8.3,2.3-12.7,2.2-2.7,0-4.6-2-4.6-4.6,1.6-4.5,4.7-8.1,7-12.2,7.7-13.7,12.8-28.3,15.4-43.7,1.3-7.6,2-15.3,1.9-23.1,0-5.8-3.9-9.6-9.6-9.5-5.4,0-8.9,3.8-9,9.5,0,3.9-.2,7.8-.4,11.7,0,1,.1,2.2-.7,3.1q0,.4,0,1.3c0,.8-.7,5.2-.9,6.2-.2,1.1,0,.4,0,.8s-.6,2.9-.8,4-.1.6-.2.9c-.4,5-2.2,9.7-4,14.3-3.2,8.1-7.1,15.8-11.6,23.3-3.1,5.1-6.3,16.2-6.3,16.4s-.4,1.5-.4,2.7c.1.3.9,7,4.2,9.7,3.5,4.5,8.2,6.5,13.5,7.8,5.3,1.3,10.5,0,15.7-1,11.2-2.2,25-9.6,30.8-13.2,9.6-5.8,13.5-10.9,17-14.7,5.4-5.7,13.1-20,15.1-23.8s12.5,3.6,12.5,3.6c8.3,4.9,17.9,14.6,20.9,26.6,2.9,12,2.8,14,2.8,23.5s-1.7,17.2-4.5,28.9c-2.8,11.8-2.3,8.6-3.8,12.8-5.3,14.6-12.9,27.7-24.3,38.4-9.9,9.3-21.5,15.1-34.9,17.5-6.9,1.2-13.5,1.3-20.1-1.1-8.3-2.9-14.3-12-15.4-19.6-.4-2.9,0-5.1.4-7.2.4-2.1,1.9-5.6,3.7-8,2.6-3.5,3.1-5.7,1.6-7.9-1.7-2.4-5.8-3.7-9-2.7-4.2,1.3-6.9,4.4-9.3,7.8-1.9,3.9-4,7.7-4.6,12.2-.7,5.3-.2,10.3,1.7,15.2,1.1,2.8.9,3-1.8,3.8-12.6,3.6-25.4,5.7-38.4,7.4-16.3,2.1-32.6,3-49,2.8-14.3-.2-28.6-1-42.8-2.8-11.9-1.5-23.7-3.2-35.2-6.6-2.2-.6-4.3-1.4-6.4-2-1.1-.3-1.6-.8-1-1.9,4.1-8.6,2.7-17-.7-25.3-.3-.7-.5-1.4-.8-2.1-2.5-2.7-4.4-6.1-8-7.6-2-.9-4-1.5-6.2-1.2-4.8.6-7.1,5.4-4.4,9.4,2.1,3.2,4.6,8.9,4.9,10.2.1.6.3.8.3,1.5,0,.7.2,1.5.1,3,0,.6-.2,1.8-.6,3.3-.7,3.8-5.5,13.8-12.8,17.2-9.2,4.2-18.7,3.5-28,.6-23.3-7-39.2-22.2-49.1-44.2-2.4-5.3-4.3-10.6-5.9-16.1-.1-.5,0-1-.1-1.4,0-.3,0,0-.2-.9s-.4-.8-.5-1c0-.2-4.3-17.7-5.1-26.9-.2-2.2-.5-4.4-.7-6.6-.2-2.3-.2-4.3,0-6.8.3-2.5.4-3.5.4-3.8s0-.6.1-.8c0-.2.2-.9.2-1.5s0-1.2.2-1.9c.2-.7.6-1.5.6-2.2,0-.7,0-.3,0-.8,0-.5,0-.7.1-1,0-.3,0-.4.1-.9.2-.5.5-1.5.6-1.8,0-.2.2-1.4.4-1.7s.3-.6.6-1.3c.3-.7.3-.8.5-1.2.2-.4.4-1,.5-1.3s12.1-19.1,23.2-23.6c1.3-.5,2.6-1.2,4-1.2,3.5-1.6,4-1.4,5.5,1.7,6,12.6,25.5,32.7,25.1,32.2-.5-.4.7.6,1.1.9.4.3.5.4.8.7,3.1,1.9,6.2,3.7,9.3,5.6,7.5,4.4,15.5,7.5,23.9,9.6,4.5,1.1,9.1,1.7,13.7,1.9,2.1,0,4-1.2,6.1-.9.6-.2,1.2-.3,1.8-.6s.5-.1,1.2-.5c.7-.4.6-.3.9-.4.2,0,.5-.2,1.2-.6.7-.3,8.6-7.4,9.6-13.5.8-4.8-.8-9-2.9-13.1-3.8-7.6-8.5-14.6-11.9-22.4-3.6-8.5-8.2-25.8-8.3-26.3-.1-.4-.3-.9-.4-1.4s-.8-4.8-.8-4.9c0,0-.1-.9-.2-1.1,0-.2-.4-4.9-.5-5.2,0-.3,0-.8,0-1.2,0-.4-.3-9-.4-13.5-.8-.5-.9-1.3-1.3-2-2.1-3.6-6.9-5.8-10.8-4.8-3.8.9-6.6,4-6.8,8.2-.4,10,.3,20,2.3,29.8,2.2,10.5,5.5,20.7,10.4,30.3,3.1,6.1,6.6,11.9,10.4,17.6,1,1.5,1.8,2.9.4,4.6-1.6,2.7-3.3,3.6-6.7,3-8.3-1.3-15.3-4.3-22.4-8.7-12.5-7.8-22.5-18-29.5-31.1-4.3-8-6.9-16.5-8.7-25.4-2.4-11.8-3-23.7-2.3-35.7.1-1.8-.9-3.6.4-5.3,0-1.9.2-4.9.3-5.8,0-.9.2-1.6.3-2.3.1-.8.2-1.6.2-1.9,0-.3,0-.8,0-1,0-.2.2-3.3.2-3.8,0-.5.3-1.4.4-1.8.1-.4.5-4.1.6-4.7,0-.6.3-1.5.4-1.8,0-.3.5-3.5.6-4.2,0-.6.3-1.3.4-1.8.1-.5.5-2.7.6-3.2,0-.5.2-1,.4-1.3s2.1-9.2,2.2-9.7.3-1,.4-1.3c0-.3.5-2.2.6-2.7s.3-.9.5-1.3c.2-.4,7.3-29.8,7.2-29.6,0,0,0,0,0,0,0,0,0,0,0,0,0-.1.3-1,.4-1.3,0-.4.5-2.6.7-3.2.1-.6.2-1,.3-1.3,0-.3.5-2.8.6-3.2s.3-1.1.4-1.3c0-.2.2-1.5.3-1.9,0-.4.1-.8.2-1,0-.2.2-.6.3-.8,0-.2.2-1.1.3-1.3,0-.2.1-.6.2-.9,0-.3,0-.9,0-1,0-.1.5-2.2.6-2.5,0-.3.3-1.9.3-1.9,0,0,.6-2.7.8-3.5.1-.8.1-1,.2-1.5,0-.5.7-3.4.8-4,.1-.7.1-.9.1-1.5,0-.5.7-3.3.8-4.5.2-1.3,0-.6.1-1,.1-4.6,1.2-9.1,1.6-13.7.2-2.2,1.1-4.5,0-6.8-1.3-1.8-2.7-3.6-4-5.5-3.5-4-5.5-8.9-8.1-13.4-.5-.8-.9-1.8-1.3-2.6-.6-1.3-1.1-2.6-1.7-3.9-1.8-2.3-2.7-5.1-3.5-7.8-2-6.5-3.7-13-5.2-19.6-.9-3.8-1.7-7.8-1.3-11.8-.3-5.4,0-14.5,0-16.3,0-1.9.5-6,.7-7.6s.5-3.9.9-7,1.9-8.9,2.8-12.2,2.6-7.8,3.7-10.9ZM568,552.5c-4,9.9-9.7,18.7-16.5,26.8-.6.7-1,1.8-2.1,1.4-.9-.4-.5-1.5-.3-2.3,1.3-8.8.8-17.7,1.1-26.6l-.4-7.2-.5-2.3s0-1.6-.1-2.4c.4-1.3,1.5-1,2.5-.9.9-.1,1.5-.2,2.7-.4s2.7-.7,3.3-.8c.5-.2.4,0,.8-.1.4,0,1.2-.3,1.8-.6.6-.2,2.3-.5,2.9-.7s.7-.1,1.1-.3,2.2-.5,2.9-.7c.7-.1.7-.2,1-.2s2-.6,2.7.6c.9,5.9-.6,11.4-2.8,16.7Z"/>
      </g>
      <g id="Oscar_Head_Shape" data-name="Oscar Head Shape">
        <path class="cls-10" d="M440.4,123.5c-1.3-1-6.6-5.1-7-5.5s-1.4-1.1-2.6-1.9-3.7-2.5-5.3-3.6-4.6-3-5.7-3.8-6.1-3.4-8.7-4.9-6.6-3.3-9.3-4.5-5.5-2.2-8-3.1-12.7-4.3-15.5-5.3-4.9-1.2-4.9-1.2l-3.5-1-7-1.7-5-1-9.2-1.8c-2-.2-4.2-.6-7.7-.8s-4.1-.2-7.1-.1c-4.6-.2-9.6-.2-11.1-.2-1.3,0-3.9,0-4.4,0-3.9,0-11.3.8-12.8,1.1s-4.3.8-5.4,1-3.1.6-3.4.7-.5,0-.8.1-3.6.7-3.8.8-.8,0-1.2.2-2.3.6-3,.7-1.2.2-1.4.3-2,.6-2.6.7-1.2.2-1.8.4-2.3.6-2.6.7-2.6.8-3,.9-.6.1-.9.2c-4.3.6-7.4,2.4-7.8,2.5s-1.2.2-1.7.4l-2.3.8-2.1.8c-2,.6-2.6.8-3.8,1.3-6.3,2.7-18,8.6-18.5,8.9s-1.4,1-1.7,1.1-10.8,6.7-11.6,7.3-2.4,1.7-3.4,2.3l-3.3,2.1c-2.2,1.5-4.3,3.7-4.8,4.1s-2.3,1.5-2.3,1.5c-1,.8-.8.7-2.2,2-3.5,3.1-6.7,6.2-9.9,9.5-.5.5-.8.9-1.4,1.5s-4,4.5-4,4.5c-.4.4-.4.5-.7.8s-1.5,1.8-1.8,2.1-.5.6-.7.9-1,1.2-1.3,1.6-.5.6-.7.8l-1.9,2.6c-.3.4-5.9,8.4-6.3,9.1s-.5.9-.7,1.3l-1.5,2.5c-.2.4-1.9,3.5-2.8,5.2-2.9,5.5-6.3,12.9-7,14.9s-.8,2-.8,3.3c-.3.9-.4,1-.5,1.3l-1,2.2c-.6,1.5-2,5.7-2.2,7.5,0,1.2.9,2.4,2.5,2.1,1.4-.2,3.4,1,3.8-1.5.9-5.4,3-10.5,5.2-15.5,4.7-10.7,10.8-20.4,18.3-29.4,7.3-8.7,15.5-16.4,24.4-23.4,8.1-6.4,16.6-12,25.8-16.7,11.5-5.9,23.3-11,35.8-14.5,13.3-3.8,26.9-5.8,40.7-6.3,12.7-.5,25.4.1,37.8,3,6.1,1.4,12.1,2.9,18.1,4.6,6.6,1.8,13.2,3.7,19.3,6.6,12.3,5.9,24.1,12.5,35,20.9,12.1,9.4,23,19.9,32.2,32.1,8.1,10.6,14.7,22.1,18.4,35.1,1.4,5.8,2,5.8,7.6,6,0-1.4-.4-2.3-.6-3.1-1.9-7.8-4.5-15.2-7.7-22.6-11.5-25.2-30.6-43.6-38.2-49.4-.9-.8-1.4-1.2-2.6-2.2Z"/>
        <path class="cls-13" d="M348.9,232.3c4.9-6.6,2.2-19.8-6-23.8-.9-.3-2.3-1.2-2.1-2.2s2.4-.7,3.9-.6c12.3.8,17.9,3.6,25.6,6.9,7.5,3.4,15,7.3,20.2,13.8,3.3,4,6.8,5.1,11.6,4.8,8.4-.5,16.8,0,25.2.6,15.3,1.1,29.4,5.7,41.9,14.9,2,1.5,3.7,3.3,5.5,5,0,1.5-.4,2.7-1.2,4-3.8,6.3-7.3,12.8-11.7,18.8-4.5,6.2-9.4,11.8-15.3,16.6-2.2,1.9-4.1,4.1-6.4,5.9-5.8,4.4-11.5,8.9-17.8,12.5-5,2.8-9.8,5.8-15.1,8-6.5,2.7-13,5.4-19.7,7.6-8.4,2.7-16.8,5.1-25.4,6.9-6.1,1.3-12.4,2-18.6,2.7-6.8.7-13.6.5-20.4.4-8.4-.2-16.9-.5-25.3-1.6-8.3-1.1-16.4-3.3-24.5-5.6-9.5-2.7-18.9-6.1-27.8-10.4-9.5-4.6-18.8-9.8-27.1-16.5-4.4-3.5-9-6.9-13-10.8-4.5-4.4-8.7-9.1-12.5-14.2-4.6-6-8.4-12.5-12-19.1-.8-1.4-1.4-3-2.2-4.4,0-.6.1-1.2.2-1.8,2.5-.9,4.1-3,6.2-4.5,9.4-6.6,19.8-10.5,31.1-12.6,11.6-2.2,23.3-2.3,35-2.4,2,0,4-.3,6-.4,1.4,0,2.1-1,2.8-1.9,4.5-5.8,10.8-9.3,17-12.8,5.5-3.2,11.5-5.5,17.7-7.3,5.8-1.7,7.4-1.7,13.3-3.1,3.7-.7,4.6,0,4.9.5.6,1.1-6.4,3.7-10,11.6-1.4,2.6-1.3,4.7,0,9.5,2.5,6.3,10.4,11.8,13.6,12.5s4.5-.5,2.3,4.8c-1.2,4.5-5.7,8.6-5.7,8.6-5.4,3.7-8.3,4.8-15.7-2s-3.4-4-3.4-4h0c-2-2.4-4.4-2.3-6.5.3h0c-1.1,2.1-1,2.9-.9,5.7s2.5,7.5,5.1,9.2,9.7,4.1,12.3,4.2c9.6,0,12.8-2.2,14.5-3.2s4.2-3.6,4.2-3.6c1.3-1.3,2-2.3,2.5-3.8,0-.1.5-1.6,1.6-1.6,1.2,0,1.8.7,1.9,1.4s1.2,3.6,4.5,6.5,9.9,4.6,14.4,4.3,6.6-.4,8.4-1.1,5.9-3.4,9.1-7.6c1.6-2.1,1.9-3.6,1.8-6.3,0-4.2-1.2-4.2-1.2-4.2-1.5-1.1-3-1-5.4.6-1.3.9-2,2.4-2.9,3.6-2.5,3.4-7.4,5.2-11.2,4.5s-7.3-2.8-8.7-4.3-2.7-5.4-3.5-7.3c-.9-2.3.2-3.7,2.5-4.4s9.6-2.9,12.8-7.8ZM217.7,270.9c1.5.1,2.9-.7,4.3-1.6,3.8-2.4,7.5-4.9,11.4-7.1,5-2.8,9.9-5.7,14.7-8.8,3.3-2.2,4.2-5.4,2.7-8.4-1.8-3.6-5.8-5.5-9.3-4.4-2.9.9-5.4,2.4-8,3.9-6.4,3.9-12.8,7.6-19.2,11.5-3.1,1.9-5.1,6.1-4.3,8.9,1,3.6,4,6,7.7,6ZM409.8,240.8c-3.4,0-6,1.9-7.3,5.1-1.3,3.1.5,5.1,2.3,7,1.8,1.9,4.2,3,6.4,4.3,7.4,4.4,14.8,8.8,22.3,13.2,2.9,1.6,5.9.7,8.3-2.3,2.5-3,2.6-5.9.5-8.6-1.5-1.8-3.4-3.2-5.4-4.4-6.5-3.9-13-7.7-19.5-11.6-2.4-1.4-4.8-2.7-7.7-2.7Z"/>
        <path class="cls-12" d="M418.4,335.3c.9-.6-.1,0,1.8-.9s4.4-2.2,5.6-2.8,1.7-.7,2.4-1.1.4-.4,1.1-.8,4.3-2.3,4.9-2.7.8-.5,1-.7.3-.2.5-.3,1.8-1.3,2.6-1.9,6-4.2,6.5-4.6.8-.8,1-.9,11.8-10.4,17-16.4c.7-.8,1.6-1.7,2.6-2.2,1.1,5,1.6,11.2,2.3,16.3-3.3,1.3-4.3,1.8-6.7,3.5-7.1,5.9-14.3,11.5-22.2,16.2-6.7,3.9-13.4,7.8-20.6,10.9-6.3,4.5-4.4,1.4-4.3-1.8,0-1.9.4-4.2,1-6.6.8-1.3,1.3-2,2.4-2.5.3-.2.3,0,1.2-.7Z"/>
        <path class="cls-12" d="M239.3,347c0,.2,0,1.3,0,2-2.6-.5-4.9-2-7.3-3.1-6.6-3.1-12.5-7.4-18.9-10.9-7.4-4-14-9.1-19.8-15.3-2.1-2.2-4-4.6-6-7.1-1.5,1.7-.2,4.3-1.8,5.9.1-4.6,1.2-9.1,1.6-13.7.2-2.2,1.1-4.5,0-6.8,1.6.4,1.5,2.2,2.4,3.3,5.8,7,12.1,13.4,19.5,18.7,8.3,6,17.1,11,26.2,15.5,1.8.9,3.2,1.8,3.1,4.2,0,2.1.4,5.7.4,6.2s.3.9.3,1Z"/>
        <path class="cls-4" d="M173.9,276.6c-.6-1.5-1.1-2.6-1.7-3.9,0-1.8-.9-3.4-1.6-4.8-1.4-2.8-1.4-5.3.7-7.7,2.4-2.7,3.9-6.1,7.3-7.7.7,1.5,1.4,3,2.2,4.4,3.7,6.6,7.5,13.1,12,19.1,3.8,5,8,9.8,12.5,14.2,4,3.9,8.6,7.3,13,10.8,8.4,6.7,17.6,11.9,27.1,16.5,8.9,4.3,18.3,7.7,27.8,10.4,8.1,2.3,16.2,4.4,24.5,5.6,8.4,1.2,16.9,1.4,25.3,1.6,6.8.2,13.6.4,20.4-.4,6.2-.7,12.5-1.4,18.6-2.7,8.6-1.8,17-4.2,25.4-6.9,6.7-2.2,13.2-4.9,19.7-7.6,5.3-2.2,10.2-5.2,15.1-8,6.4-3.6,12-8.1,17.8-12.5,2.3-1.8,4.2-4,6.4-5.9,5.8-4.9,10.8-10.5,15.3-16.6,4.3-6,7.8-12.5,11.7-18.8.8-1.2,1.2-2.5,1.2-4,.2,0,.4,0,.6,0,2.5,3.2,5.6,6,7.9,9.5,1,1.4,1.3,2.5.6,4-1.1,2.7-1.5,4.7-2.1,7.6-.9,1.8-1.2,3.1-2.6,5.4s-1.1,2-2.6,4.2c-1.7,3.3-2.1,3.4-2.8,4.1-1.9,3.6-1.9,2.7-2.6,4.2s-2.8,7.1-5.2,8.9-2.6,1.8-3.3,2.7c-5.1,6-16.4,15.9-17,16.4s-.6.6-1,.9-5.6,3.9-6.5,4.6-2.2,1.6-2.6,1.9-.4.2-.4.2c0,0-.4.3-1.1.7-.7.7-4.3,2.6-4.9,2.7s-.2.5-1.1.8c-.7.5-1,.6-2.4,1.1-1.2.6-4.9,2.4-5.6,2.8-1.1.7-1.4.9-1.7,1.1s-1,.2-1.3.5-2.1,1.6-2.2,3c-1.4,1.8-.9,4-1.2,6.1-.2,1.3,0,2.6,0,4-.4,0-.8,0-1.2.2-5.3,1.9-10.4,4.1-15.8,5.6-5.8,1.7-11.4,3.6-17.3,4.9-5.8,1.3-11.6,2.4-17.4,3.5-2.7.5-3.8.3-8,.6-1.2-.2-2.3-.2-3.4-.4s-2.4-.3-3.1-.5-17.5-1.7-27-1.5c-4.1,0-8,1-12.1,1.5-1.4.2-3.8.2-4.2.5s-.5.5-1,.5-2.6.6-4,.5c-2.1-.8-4.4-.7-6.5-1.2-7.2-1.7-14.6-2.2-21.8-4.3-6.7-1.9-13.4-3.2-19.9-5.8-3.7-1.4-7.5-2.5-11.2-3.7-.2-.2-.3-.3-.5-.5,0-.7,0-2,0-2,0,0-.3-.5-.3-1.1,0-.4-.5-4.1-.4-6.2,0-2.4-1.3-3.3-3.1-4.2-9.2-4.5-18-9.5-26.2-15.5-7.4-5.3-13.7-11.7-19.5-18.7-.9-1-.7-2.8-2.4-3.3-1.3-1.8-1.2-1.5-4-5.5s-5.3-8.9-9.4-16.1Z"/>
        <path class="cls-15" d="M491.7,217.1c0-.6-.1-.8-.2-1.5,0-.7-.2-1.4-.2-2.1,0-.7-.1-2.1-.2-2.9s-.3-2.2-.4-3c-.1-.8,0,0-.1-1-.1-1-.2-1.4-.3-2.1s0,0,0-1-.5-1.8-.6-2.8c0-.1,0-.2,0-.2h-.7c-5.2-.3-5.3-.3-6.8-5.8-3.7-13-10.3-24.5-18.4-35.1-9.2-12.1-20.2-22.7-32.2-32.1-10.8-8.4-22.7-15-35-20.9-6.1-2.9-12.7-4.8-19.3-6.6-6-1.7-12-3.2-18.1-4.6-12.4-2.8-25.1-3.4-37.8-3-13.8.5-27.4,2.5-40.7,6.3-12.5,3.5-24.3,8.7-35.8,14.5-9.2,4.7-17.7,10.4-25.8,16.7-8.9,7-17.1,14.7-24.4,23.4-7.5,9-13.6,18.7-18.3,29.4-2.2,5-4.3,10-5.2,15.5-.4,2.5-2.5,1.3-3.8,1.5-1.6.2-1.7-.9-1.6-2.1,0-2.6,1.5-4.9,1.4-7.5-1.8,3.9-3,11.6-3.1,12.3,0,.7-.3,2.3-.4,3.9-.1,1.6-.1,2-.2,2.9,0,.9-.5,5.5-.7,7.6-.2,2-.3,10.9,0,16.3.4.4.7.9,1.2,1.4,1.2-1.7,2.2-3.5,4.5-3.8,1.8-.2,3.4.3,4.9,1.4,3,2,3.1,4.8,2.3,8.4-.2,1-.4,1.6.1,2.5,1.3,2.4,1.7,5.2,3.7,7.2,2.5-.9,4.1-3,6.2-4.5,9.4-6.6,19.8-10.5,31.1-12.6,11.6-2.2,23.3-2.3,35-2.4,2,0,4-.3,6-.4,1.4,0,2.1-1,2.8-1.9,4.5-5.8,10.8-9.3,17-12.8,5.5-3.2,11.5-5.5,17.7-7.3,5.8-1.7,11.8-.5,17.7-1.8.3,0,.7.2,1.1.4,9.3-3.9,18.3-3.8,27.5,0,10.4-.2,20.2,1.2,29.5,5.3,7.5,3.4,15,7.3,20.2,13.8,3.3,4,6.8,5.1,11.6,4.8,8.4-.5,16.8,0,25.2.6,15.3,1.1,29.4,5.7,41.9,14.9,2,1.5,3.7,3.3,5.5,5,.2,0,.4,0,.6,0,.4-1.4.6-2.9,1.3-4.2,1.7-3,1.9-6.2,1.7-9.5-.3-3,1.7-5.5,4.2-6.3,2.6-.8,5.2.3,7,2.9.2.3.3.6,1.2.3,0-2.8-.1-5.7,0-8.6.1-3,.9-8.2.9-8.9Z"/>
        <path class="cls-12" d="M480.7,273.1c.6-2.9,2-5.4,3.1-8.1.6-1.5.3-2.6-.6-4-2.3-3.4-5.4-6.2-7.9-9.5.4-1.4.6-2.9,1.3-4.2,1.7-3,1.9-6.2,1.7-9.5-.3-3,1.7-5.5,4.2-6.3,2.6-.8,5.2.3,7,2.9.2.3.3.6,1.2.3,0-2.8-.1-5.7,0-8.6.1-3-.5-6.3.4-9.2.4.4.9,1,1,1.5.8,14.7-.7,29.4-5.8,43.3-1.2,3.2-2.4,6.4-3.7,9.5-.3.8-1,1.7-2,2.1Z"/>
        <path class="cls-12" d="M178.6,252.4c-3.4,1.7-5,5.1-7.3,7.7-2.1,2.4-2.2,4.9-.7,7.7.8,1.5,1.7,3,1.6,4.8-1.8-2.3-2.7-5.1-3.5-7.8-2-6.5-3.7-13-5.2-19.6-.9-3.8-1.7-7.8-1.3-11.8.4.4.7.9,1.2,1.4,1.2-1.7,2.2-3.5,4.5-3.8,1.8-.2,3.4.3,4.9,1.4,3,2,3.1,4.8,2.3,8.4-.2,1-.4,1.6.1,2.5,1.3,2.4,1.7,5.2,3.7,7.2,0,.6-.1,1.2-.2,1.8Z"/>
      </g>
      <path id="Oscar_Right_Whisker" data-name="Oscar Right Whisker" class="cls-11" d="M217.7,270.9c-3.7,0-6.7-2.4-7.7-6-.8-2.8,1.2-7,4.3-8.9,6.4-3.9,12.8-7.6,19.2-11.5,2.6-1.6,5.1-3.1,8-3.9,3.5-1.1,7.5.9,9.3,4.4,1.5,3,.6,6.2-2.7,8.4-4.8,3.1-9.7,6-14.7,8.8-3.9,2.2-7.6,4.7-11.4,7.1-1.4.9-2.9,1.7-4.3,1.6Z"/>
      <path id="Oscar_Left_Whisker" data-name="Oscar Left Whisker" class="cls-11" d="M409.8,240.8c2.9,0,5.3,1.3,7.7,2.7,6.5,3.9,13,7.7,19.5,11.6,2,1.2,3.9,2.5,5.4,4.4,2.2,2.7,2,5.6-.5,8.6-2.4,2.9-5.5,3.9-8.3,2.3-7.5-4.3-14.9-8.8-22.3-13.2-2.2-1.3-4.6-2.4-6.4-4.3-1.8-2-3.6-3.9-2.3-7,1.3-3.2,3.9-5,7.3-5.1Z"/>
      <g id="Oscar_Nose_and_Mouth" data-name="Oscar Nose and Mouth">
        <path class="cls-9" d="M327.1,255.9c0-.3-.3-.5-.7-.5s-.6.3-.7.6-2.3,3.7-3,4.5c-1.9,2-2.8,2.3-3.9,3s-3.1,1.6-3.1,1.6c-3.8,1.9-7.7,2.6-12,2.1s-7.7-2.2-7.7-2.2c-8.3-3.4-11.5-11.6-8.8-17.6.4-.9,2.9-4.3,6.6-.4l1,1c3.6,4.3,9,10.2,15.6,6.2,1.8-1.1,2.4-1.4,3.8-3s4.3-4.6,4.7-8.8c.1-1.4.3-1.8-1-1.9-4.2-.6-7.4-2.7-10.5-5.4,0,0-4.7-4.1-6.1-10.6,0-1.4-.2-4.1.5-6.1.9-3,2.2-5.6,4.5-7.9,0,0,3.9-4,10.7-6.1,8.6-3.1,18.1-.5,23.1,1.7,3.1,1.4,5.1,3.1,5.1,3.1,5,4.6,7.2,9.5,6.3,17-.2,1.8-2,7.1-5.7,9.8-1.9,1.3-6.6,4-10.4,4.9-.8.2-1.2,1-1,1.8.6,2.9,2,6.3,3.8,8.2,1.5,1.6,2.4,2.3,3.7,3,5.5,2.7,12.1,1.4,15.9-4,3-4.2,5.3-5.8,8.6-2.7,0,0,2.1,2.5,1.4,6.7-1.5,5.5-7.6,10-8.8,10.9s-4.3,2-7.1,2.3c-3.2.1-5.7.3-9.4-.6-4.3-.9-6.4-1.4-9.9-3.8-.5-.4-1.7-1.1-2.6-2.1-.6-.9-1.6-2.2-2.9-4.8ZM325.3,219.7c2.9,0,5.2.1,7.4-.9,2.8-1.4,3.3-4.6,1.2-6.8-3.5-3.7-12.4-3.5-15.8.2-2,2.2-1.4,5.1,1.2,6.4,2.1,1,4.3,1.2,6,1.2Z"/>
        <path class="cls-10" d="M325.3,219.7c-1.7,0-3.9-.1-6-1.2-2.7-1.3-3.2-4.2-1.2-6.4,3.4-3.8,12.2-3.9,15.8-.2,2.2,2.3,1.6,5.4-1.2,6.8-2.2,1.1-4.5,1-7.4.9Z"/>
      </g>
      <g id="Oscar_Eyes" data-name="Oscar Eyes">
        <g id="Oscar_Right_Eye" data-name="Oscar Right Eye">
          <path class="cls-9" d="M400.8,212.4c-9.3,0-16.9-8.4-16.8-18.6,0-10.3,8.3-18.4,18.7-18.4,9.6,0,17.6,8.7,17.5,18.8,0,10.5-8.3,18.2-19.4,18.2Z"/>
          <circle class="cls-13" cx="410.4" cy="186.2" r="3.8"/>
        </g>
        <g id="Oscar_Left_Eye" data-name="Oscar Left Eye">
          <path class="cls-9" d="M266.8,193.9c.1,10.6-7.6,18.4-18.3,18.5-9.6,0-18.1-8.4-18.1-18.2,0-10.8,7.6-18.5,17.6-18.9,10.6-.4,18.7,7.8,18.8,18.6Z"/>
          <circle class="cls-13" cx="256.6" cy="187.3" r="4.3"/>
        </g>
      </g>
    </g>
    <g id="Nosebit">
      <path class="cls-6" d="M365.2,180.1s-4.6-6.7-36.2-9.6c-28.7-.5-36.2,9.6-36.2,9.6v-19.9s11.6-7.4,36.6-6c25.9,1.4,35.7,6,35.7,6v19.9Z"/>
      <path class="cls-8" d="M329,164.4c-28.7-.4-36.2,7.7-36.2,7.7v6.7s7.5-8.1,36.2-7.7c31.6,2.3,36.2,7.7,36.2,7.7v-6.7s-4.6-5.4-36.2-7.7Z"/>
    </g>
    <g id="Right_lens" data-name="Right lens">
      <circle class="cls-2" cx="419.2" cy="188.4" r="58.1"/>
      <path class="cls-6" d="M419.6,255.2c-36.8,0-66.8-30-66.8-66.8s7.2-39.2,20.8-51c11.7-10.2,28-15.8,46-15.8,36.8,0,66.8,30,66.8,66.8s-30,66.8-66.8,66.8ZM419.6,136.5c-14.4,0-27.2,4.3-36.2,12.1-10.4,9.1-15.7,22.5-15.7,39.8,0,28.6,23.3,51.9,51.9,51.9s51.9-23.3,51.9-51.9-23.3-51.9-51.9-51.9Z"/>
      <path class="cls-1" d="M466.9,210.4c-8.2,17.9-26.3,30.4-47.2,30.4s-51.9-23.3-51.9-51.9.8-13.1,2.5-18.7c-2.7-6.9-4.2-14.4-4.2-22.1s0-1.4,0-2c-8.6,11.2-13.2,25.8-13.2,42.8,0,36.8,30,66.8,66.8,66.8s59.8-23.5,65.6-54.5c-5.6,3.8-11.7,6.9-18.4,9.2Z"/>
      <g id="Right_Glare" data-name="Right Glare">
        <path class="cls-10" d="M440.5,141.1l-60.9,80.4c5.7,7.4,13.9,12.4,22.7,15.9l59.7-78.9c-5.5-7.6-12.9-13.7-21.6-17.4Z"/>
        <path class="cls-10" d="M374.3,158.5c.4-1.1,7.1-9.5,13.7-13.6,8.3-5.9,18.3-7.8,18.3-7.8,4.7-.8,6.1.2,7.6,1.9l1,1.9c0,2.6-.9,4.2-2.5,5.2,0,0-8.9,2.5-13.2,3.9-6.8,2.1-15.1,12.1-15.1,12.1-1.7,1.5-2.8,3.8-6.6,1.8s-3.7-4.3-3.2-5.4Z"/>
        <path class="cls-10" d="M376.6,175.2c-1.1,3.3-1.4,6.1-4.9,4.9s-3.7-4.2-2.6-7.5,2-5.9,6.6-4.4,2.1,3.6,1,6.9Z"/>
      </g>
    </g>
    <g id="Left_Lens" data-name="Left Lens">
      <path class="cls-2" d="M234.7,136.5c-28.6,0-51.9,23.3-51.9,51.9s23.3,51.9,51.9,51.9,51.9-23.3,51.9-51.9-17.5-51.9-51.9-51.9Z"/>
      <path class="cls-6" d="M168.7,179.1c2.3,3.9,5,7.6,8.1,11,0-.5,0-1.1,0-1.6,0-32.1,26-58.1,58.1-58.1s58.1,26,58.1,58.1,0,.6,0,.8c3.1-3.5,5.7-7.3,8-11.3.1.9.2,1.9.3,2.9-1.3-18.6-7.6-33.1-18.6-43.3-11.5-10.6-27.6-15.9-47.9-15.9-36.8,0-66.8,30-66.8,66.8s.1,4.6.4,6.9c-.2-2.1-.3-4.3-.3-6.4,0-3.3.3-6.6.7-9.8Z"/>
      <path class="cls-6" d="M234.9,130.3c-32.1,0-58.1,26-58.1,58.1s0,1.1,0,1.6c2,2.3,4.2,4.4,6.6,6.4,3.7,25.1,25.3,44.4,51.4,44.4s47.9-19.5,51.4-44.8c2.4-2.1,4.7-4.4,6.8-6.8,0-.3,0-.6,0-.8,0-32.1-26-58.1-58.1-58.1ZM234.7,240.3c-28.6,0-51.9-23.3-51.9-51.9s23.3-51.9,51.9-51.9,51.9,17.5,51.9,51.9-23.3,51.9-51.9,51.9Z"/>
      <path class="cls-1" d="M301.2,180.8c.2,2.5.3,5,.3,7.6,0,36.8-30,66.8-66.8,66.8s-63-26.3-66.4-59.9c3.2,33.8,31.8,60.4,66.5,60.4s66.8-30,66.8-66.8-.1-5.4-.3-8.1Z"/>
      <path class="cls-1" d="M234.7,255.2c36.8,0,66.8-30,66.8-66.8s0-5.1-.3-7.6c0-1-.2-1.9-.3-2.9-2.2,4-4.9,7.8-8,11.3-.4,31.7-26.3,57.3-58.1,57.3s-57.2-25.1-58.1-56.5c-3.1-3.4-5.8-7.1-8.1-11-.5,3.2-.7,6.5-.7,9.8s.1,4.3.3,6.4c3.5,33.6,31.9,59.9,66.4,59.9Z"/>
      <path class="cls-1" d="M286.2,196c-3.5,25.3-25.2,44.8-51.4,44.8s-47.7-19.3-51.4-44.4c-2.4-2-4.5-4.2-6.6-6.4.9,31.3,26.5,56.5,58.1,56.5s57.7-25.6,58.1-57.3c-2.1,2.4-4.4,4.7-6.8,6.8Z"/>
      <g id="Left_Glare" data-name="Left Glare">
        <path class="cls-10" d="M256.6,139.5l-62.6,81.1c5.9,7.7,14,13.2,23.1,16.8l61.5-81.8c-7.1-10.5-14.8-13.6-22-16.1Z"/>
        <path class="cls-10" d="M192,158.9c.4-1.1,7.1-9.5,13.7-13.6,8.3-5.9,18.3-7.8,18.3-7.8,4.7-.8,6.1.2,7.6,1.9l1,1.9c0,2.6-.9,4.2-2.5,5.2,0,0-8.9,2.5-13.2,3.9-6.8,2.1-15.1,12.1-15.1,12.1-1.7,1.5-2.8,3.8-6.6,1.8s-3.7-4.3-3.2-5.4Z"/>
        <path class="cls-10" d="M192.6,175.2c-1.1,3.3-1.4,6.1-4.9,4.9s-3.7-4.2-2.6-7.5,2-5.9,6.6-4.4,2.1,3.6,1,6.9Z"/>
      </g>
    </g>
    <g id="Medal">
      <g id="Medal_Ribbon" data-name="Medal Ribbon">
        <polygon class="cls-17" points="299.1 419.7 251.7 464.8 157.8 355.8 167.3 298.1 299.1 419.7"/>
        <polygon class="cls-18" points="355.1 419.7 402.6 464.8 496.4 355.8 486.9 298.1 355.1 419.7"/>
      </g>
      <g id="The_Medal_Itself" data-name="The Medal Itself">
        <path class="cls-6" d="M326,375.9c-49.1,0-88.9,39.8-88.9,88.9s39.8,88.9,88.9,88.9,88.9-39.8,88.9-88.9-39.8-88.9-88.9-88.9ZM326,520.5c-30.8,0-55.7-24.9-55.7-55.7s24.9-55.7,55.7-55.7,55.7,24.9,55.7,55.7-24.9,55.7-55.7,55.7Z"/>
        <path class="cls-1" d="M379.1,480.6c-6.9,23-28.2,39.7-53.4,39.7s-33.4-8.2-43.6-21.1c-17.1-4.8-32.4-13.7-44.8-25.4,4.6,44.8,42.4,79.7,88.4,79.7s88.9-39.8,88.9-88.9-1.3-17.3-3.7-25.3c-6.8,16.3-17.9,30.5-31.8,41.3Z"/>
        <circle class="cls-7" cx="326" cy="464.8" r="55.7"/>
        <path class="cls-5" d="M323.7,495.3c-23.4,0-43.7-13.6-53.4-33.3,0,.9,0,1.9,0,2.9,0,30.8,24.9,55.7,55.7,55.7s55.7-24.9,55.7-55.7-.4-7.8-1.2-11.5c-7.4,24.3-30,42-56.8,42Z"/>
        <path class="cls-3" d="M274.2,467.9c0-30.3,24.6-54.9,54.9-54.9s33.7,8.5,43.7,21.7c-9.9-15.4-27.2-25.6-46.8-25.6-30.8,0-55.7,24.9-55.7,55.7s10.2,36.9,25.6,46.8c-13.2-10-21.7-25.9-21.7-43.7Z"/>
        <polygon class="cls-2" points="344.9 487.9 327.1 480.7 309.4 488.3 310.7 469.1 298 454.6 316.7 449.9 326.5 433.3 336.7 449.7 355.6 453.9 343.2 468.7 344.9 487.9"/>
        <polygon class="cls-14" points="357.9 454.5 353.1 453.4 341.6 466.8 343.3 484.9 326 478.1 309.3 485.1 308.9 489.9 327.7 482 346.6 489.4 344.7 469.7 357.9 454.5"/>
      </g>
    </g>
  </g>
  <g id="Layer_2" data-name="Layer 2" class="cls-19">
    <path class="cls-16" d="M473.6,314.1c6-7.5,10.4-14.1,12.8-19.1,10.7-20.5,14.3-43.3,14.1-52.3,0-85.4-78.4-154.1-174-154.1s-170.7,67-173.1,150.5c-.5,9.5.7,31.3,15,58.2,7.8,13.4,9.8,12.5,10.4,16.8s-6.9,41-7.9,44.6-8.2,35.9-11,47.6c-2.7,11.8-6.7,27.5-7.3,52.6-.6,25.1,5,41.8,8.7,50.2s12.3,23.3,21.6,31.7,27.3,19.3,30.3,20.2c4.8,2.1,20.4,8.4,29.4-.8.8-1,1.4-2.2,1.8-3.7.8-3,.3-6.2-1.2-8.9-6.3-11.2-13-24.3-14-26.3-6.8-13.9-11.3-34.8-11.6-52.8"/>
  </g>
</svg>